<svg width="40" height="46" viewBox="0 0 40 46" fill="none" xmlns="http://www.w3.org/2000/svg">
<path fill-rule="evenodd" clip-rule="evenodd" d="M13.6892 30H0C0.380954 34.4511 2.01502 38.3759 4.90226 41.2632C7.78949 44.1504 12.9824 45.594 20.4812 45.594C24.7519 45.594 28.2907 44.9775 31.0977 43.7444C33.9048 42.5113 36.0902 40.7018 37.6541 38.3158C39.2181 35.9298 40 33.3233 40 30.4962C40 28.0902 39.4135 25.9148 38.2406 23.9699C37.0677 22.0251 35.193 20.396 32.6165 19.0827C30.0401 17.7694 25.7745 16.4712 19.8195 15.188C17.4135 14.6867 15.8897 14.1454 15.2481 13.5639C14.5865 13.0025 13.6892 12.1805 13.6892 11.4787C13.6892 10.5163 14.5035 8.21053 19.0376 8.21053C20.9624 8.21053 22.4712 8.66165 23.5639 9.56391C23.778 9.74065 24.0086 9.90932 24.2436 10.0812C25.2083 10.7868 26.2472 11.5467 26.5213 13.1429H38.5564C37.995 8.57141 36.2356 5.23811 33.2782 3.14286C30.3208 1.04761 26.0251 0 20.391 0C15.7995 0 12.1855 0.576435 9.54887 1.72932C6.91227 2.88221 4.93735 4.46616 3.62406 6.4812C2.31077 8.49625 1.65414 10.6366 1.65414 12.9023C1.65414 16.3509 2.93733 19.188 5.50376 21.4135C7.34041 23.0188 10.0689 24.3946 13.6892 25.5409V18.3225C15.6117 19.9226 18.0723 20.4869 20.4208 21.0256C22.7913 21.5693 25.0477 22.0867 26.5213 23.6168V32.01C26.5213 33.213 26.2406 34.6516 25.188 35.5639C24.1353 36.4762 22.6366 36.9323 20.6917 36.9323C15.2849 36.9323 13.9699 32.1053 13.6892 30Z" fill="#003AAD"/>
</svg>
